<svg version="1.1" viewBox="0.0 0.0 329.5800524934383 242.6272965879265" fill="none" stroke="none" stroke-linecap="square" stroke-miterlimit="10" xmlns:xlink="http://www.w3.org/1999/xlink" xmlns="http://www.w3.org/2000/svg"><clipPath id="p.0"><path d="m0 0l329.58005 0l0 242.6273l-329.58005 0l0 -242.6273z" clip-rule="nonzero"/></clipPath><g clip-path="url(#p.0)"><path fill="#000000" fill-opacity="0.0" d="m0 0l329.58005 0l0 242.6273l-329.58005 0z" fill-rule="evenodd"/><path fill="#000000" d="m9.900263 91.54855l66.48819 0l0 44.503937l-66.48819 0z" fill-rule="evenodd"/><path stroke="#000000" stroke-width="1.0" stroke-linejoin="round" stroke-linecap="butt" d="m9.900263 91.54855l66.48819 0l0 44.503937l-66.48819 0z" fill-rule="evenodd"/><path fill="#000000" d="m90.29921 91.54855l66.48819 0l0 44.503937l-66.48819 0z" fill-rule="evenodd"/><path stroke="#000000" stroke-width="1.0" stroke-linejoin="round" stroke-linecap="butt" d="m90.29921 91.54855l66.48819 0l0 44.503937l-66.48819 0z" fill-rule="evenodd"/><path fill="#000000" d="m170.69817 91.54855l66.48819 0l0 44.503937l-66.48819 0z" fill-rule="evenodd"/><path stroke="#000000" stroke-width="1.0" stroke-linejoin="round" stroke-linecap="butt" d="m170.69817 91.54855l66.48819 0l0 44.503937l-66.48819 0z" fill-rule="evenodd"/><path fill="#000000" d="m251.0971 91.54855l66.48819 0l0 44.503937l-66.48819 0z" fill-rule="evenodd"/><path stroke="#000000" stroke-width="1.0" stroke-linejoin="round" stroke-linecap="butt" d="m251.0971 91.54855l66.48819 0l0 44.503937l-66.48819 0z" fill-rule="evenodd"/></g></svg>